<svg width="128" height="334" viewBox="0 0 128 334" fill="none" xmlns="http://www.w3.org/2000/svg">
<path d="M0 6H28.0764V327H13.9877H0V6Z" fill="#FF006F"/>
<path d="M108 330.8L107.819 332.792L110 332.99V330.8H108ZM76.256 327.92H74.256V329.747L76.0753 329.912L76.256 327.92ZM76.256 319.408L76.0753 317.416L74.256 317.581V319.408H76.256ZM108 316.528H110V314.338L107.819 314.536L108 316.528ZM68.192 316.208L68.9895 314.374L68.9894 314.374L68.192 316.208ZM70.752 317.936L72.1662 316.522L72.1662 316.522L70.752 317.936ZM70.752 329.328L69.3378 327.914L69.3378 327.914L70.752 329.328ZM68.192 331.056L67.3945 329.222L67.3945 329.222L68.192 331.056ZM61.92 331.056L62.7175 329.222L62.7175 329.222L61.92 331.056ZM59.36 329.328L57.9458 330.742L57.9458 330.742L59.36 329.328ZM57.632 326.768L55.7979 327.565L55.7979 327.565L57.632 326.768ZM57.632 320.496L55.7979 319.699L55.7979 319.699L57.632 320.496ZM59.36 317.936L57.9458 316.522L57.9458 316.522L59.36 317.936ZM61.92 316.208L61.1225 314.374L61.1225 314.374L61.92 316.208ZM108.181 328.808L76.4367 325.928L76.0753 329.912L107.819 332.792L108.181 328.808ZM78.256 327.92V319.408H74.256V327.92H78.256ZM76.4367 321.4L108.181 318.52L107.819 314.536L76.0753 317.416L76.4367 321.4ZM106 316.528V330.8H110V316.528H106ZM65.056 317.568C65.9012 317.568 66.6741 317.729 67.3945 318.042L68.9894 314.374C67.7472 313.834 66.4294 313.568 65.056 313.568V317.568ZM67.3945 318.042C68.1559 318.373 68.7975 318.81 69.3378 319.35L72.1662 316.522C71.2558 315.611 70.1908 314.896 68.9895 314.374L67.3945 318.042ZM69.3378 319.35C69.8781 319.891 70.3149 320.532 70.6459 321.293L74.3141 319.699C73.7918 318.497 73.0766 317.432 72.1662 316.522L69.3378 319.35ZM70.6459 321.293C70.9591 322.014 71.12 322.787 71.12 323.632H75.12C75.12 322.259 74.8542 320.941 74.3141 319.699L70.6459 321.293ZM71.12 323.632C71.12 324.477 70.9591 325.25 70.6459 325.971L74.3141 327.565C74.8542 326.323 75.12 325.005 75.12 323.632H71.12ZM70.6459 325.971C70.3149 326.732 69.8781 327.373 69.3378 327.914L72.1662 330.742C73.0766 329.832 73.7918 328.767 74.3141 327.565L70.6459 325.971ZM69.3378 327.914C68.7975 328.454 68.1559 328.891 67.3945 329.222L68.9894 332.89C70.1908 332.368 71.2558 331.653 72.1662 330.742L69.3378 327.914ZM67.3945 329.222C66.6741 329.535 65.9012 329.696 65.056 329.696V333.696C66.4294 333.696 67.7472 333.43 68.9894 332.89L67.3945 329.222ZM65.056 329.696C64.2107 329.696 63.4379 329.535 62.7175 329.222L61.1225 332.89C62.3648 333.43 63.6826 333.696 65.056 333.696V329.696ZM62.7175 329.222C61.9561 328.891 61.3145 328.454 60.7742 327.914L57.9458 330.742C58.8562 331.653 59.9212 332.368 61.1225 332.89L62.7175 329.222ZM60.7742 327.914C60.2339 327.373 59.7971 326.732 59.4661 325.971L55.7979 327.565C56.3202 328.767 57.0354 329.832 57.9458 330.742L60.7742 327.914ZM59.4661 325.971C59.1529 325.25 58.992 324.477 58.992 323.632H54.992C54.992 325.005 55.2578 326.323 55.7979 327.565L59.4661 325.971ZM58.992 323.632C58.992 322.787 59.1529 322.014 59.4661 321.293L55.7979 319.699C55.2578 320.941 54.992 322.259 54.992 323.632H58.992ZM59.4661 321.293C59.7971 320.532 60.2339 319.89 60.7742 319.35L57.9458 316.522C57.0354 317.432 56.3202 318.497 55.7979 319.699L59.4661 321.293ZM60.7742 319.35C61.3145 318.81 61.9561 318.373 62.7175 318.042L61.1225 314.374C59.9212 314.896 58.8562 315.611 57.9458 316.522L60.7742 319.35ZM62.7174 318.042C63.4379 317.729 64.2107 317.568 65.056 317.568V313.568C63.6826 313.568 62.3648 313.834 61.1225 314.374L62.7174 318.042ZM58.08 248.897V246.897H56.08V248.897H58.08ZM108 248.897H110V246.897H108V248.897ZM108 261.697V263.697H110V261.697H108ZM89.44 261.697V259.697H87.44V261.697H89.44ZM89.44 282.049H87.44V284.049H89.44V282.049ZM108 282.049H110V280.049H108V282.049ZM108 294.785V296.785H110V294.785H108ZM58.08 294.785H56.08V296.785H58.08V294.785ZM58.08 282.049V280.049H56.08V282.049H58.08ZM77.472 282.049V284.049H79.472V282.049H77.472ZM77.472 261.697H79.472V259.697H77.472V261.697ZM58.08 261.697H56.08V263.697H58.08V261.697ZM58.08 250.897H108V246.897H58.08V250.897ZM106 248.897V261.697H110V248.897H106ZM108 259.697H89.44V263.697H108V259.697ZM87.44 261.697V282.049H91.44V261.697H87.44ZM89.44 284.049H108V280.049H89.44V284.049ZM106 282.049V294.785H110V282.049H106ZM108 292.785H58.08V296.785H108V292.785ZM60.08 294.785V282.049H56.08V294.785H60.08ZM58.08 284.049H77.472V280.049H58.08V284.049ZM79.472 282.049V261.697H75.472V282.049H79.472ZM77.472 259.697H58.08V263.697H77.472V259.697ZM60.08 261.697V248.897H56.08V261.697H60.08ZM72.992 226.728L73.8158 224.906L73.8066 224.902L72.992 226.728ZM64.736 221.032L63.2968 222.421L63.3029 222.428L63.3091 222.434L64.736 221.032ZM59.168 212.584L57.3247 213.361L57.3284 213.369L59.168 212.584ZM59.168 192.104L61.0076 192.889L61.0113 192.881L59.168 192.104ZM64.736 183.656L66.1629 185.058L66.1691 185.052L66.1752 185.045L64.736 183.656ZM72.992 177.96L73.7858 179.796L73.8009 179.79L73.8158 179.783L72.992 177.96ZM93.152 177.96L92.3374 179.787L92.349 179.792L93.152 177.96ZM101.344 183.656L99.9048 185.045L99.9109 185.052L99.9171 185.058L101.344 183.656ZM106.912 192.104L105.069 192.881L105.072 192.889L106.912 192.104ZM106.912 212.584L108.752 213.369L108.755 213.361L106.912 212.584ZM101.344 221.032L102.771 222.434L102.777 222.428L102.783 222.421L101.344 221.032ZM93.152 226.728L93.9666 228.555L93.9758 228.551L93.152 226.728ZM88.352 214.888L89.1111 216.739L89.1312 216.731L89.1512 216.722L88.352 214.888ZM92.704 211.944L94.1182 213.359L94.1306 213.346L94.1428 213.334L92.704 211.944ZM95.584 207.656L97.4096 208.473L97.4224 208.445L97.4343 208.416L95.584 207.656ZM95.584 197.032L97.4273 196.256L97.4224 196.245L97.4174 196.233L95.584 197.032ZM92.704 192.744L91.2898 194.159L91.2898 194.159L92.704 192.744ZM88.352 189.864L87.5528 191.698L87.5728 191.707L87.5929 191.715L88.352 189.864ZM77.728 189.864L78.4871 191.715L78.5072 191.707L78.5272 191.698L77.728 189.864ZM73.44 192.744L74.8292 194.183L74.8544 194.159L74.8788 194.134L73.44 192.744ZM70.56 197.032L72.3856 197.849L72.3984 197.821L72.4103 197.792L70.56 197.032ZM70.56 207.656L72.4033 206.88L72.3984 206.869L72.3934 206.857L70.56 207.656ZM73.44 211.944L74.8788 210.555L74.8666 210.543L74.8542 210.53L73.44 211.944ZM77.728 214.888L76.9288 216.722L76.9488 216.731L76.9689 216.739L77.728 214.888ZM83.04 226.84C79.726 226.84 76.6591 226.191 73.8158 224.906L72.1682 228.551C75.5542 230.082 79.186 230.84 83.04 230.84V226.84ZM73.8066 224.902C70.8707 223.593 68.3282 221.836 66.1629 219.631L63.3091 222.434C65.8371 225.008 68.7987 227.048 72.1774 228.555L73.8066 224.902ZM66.1752 219.644C64.0027 217.392 62.2802 214.782 61.0076 211.8L57.3284 213.369C58.7865 216.787 60.776 219.809 63.2968 222.421L66.1752 219.644ZM61.0113 211.808C59.7513 208.816 59.12 205.667 59.12 202.344H55.12C55.12 206.19 55.854 209.868 57.3247 213.361L61.0113 211.808ZM59.12 202.344C59.12 198.976 59.7526 195.831 61.0076 192.889L57.3284 191.32C55.8528 194.778 55.12 198.46 55.12 202.344H59.12ZM61.0113 192.881C62.2836 189.859 64.0021 187.258 66.1629 185.058L63.3091 182.255C60.7765 184.834 58.7831 187.865 57.3247 191.328L61.0113 192.881ZM66.1752 185.045C68.3351 182.807 70.8666 181.059 73.7858 179.796L72.1982 176.125C68.8027 177.593 65.8303 179.642 63.2968 182.268L66.1752 185.045ZM73.8158 179.783C76.6591 178.498 79.726 177.848 83.04 177.848V173.848C79.186 173.848 75.5542 174.607 72.1682 176.138L73.8158 179.783ZM83.04 177.848C86.3539 177.848 89.4459 178.498 92.3374 179.787L93.9666 176.134C90.5434 174.607 86.8941 173.848 83.04 173.848V177.848ZM92.349 179.792C95.2263 181.053 97.7404 182.802 99.9048 185.045L102.783 182.268C100.254 179.647 97.307 177.598 93.955 176.129L92.349 179.792ZM99.9171 185.058C102.078 187.258 103.796 189.859 105.069 192.881L108.755 191.328C107.297 187.865 105.303 184.834 102.771 182.255L99.9171 185.058ZM105.072 192.889C106.327 195.831 106.96 198.976 106.96 202.344H110.96C110.96 198.46 110.227 194.778 108.752 191.32L105.072 192.889ZM106.96 202.344C106.96 205.667 106.329 208.816 105.069 211.808L108.755 213.361C110.226 209.868 110.96 206.19 110.96 202.344H106.96ZM105.072 211.8C103.8 214.782 102.077 217.392 99.9048 219.644L102.783 222.421C105.304 219.809 107.294 216.787 108.752 213.369L105.072 211.8ZM99.9171 219.631C97.7473 221.84 95.2223 223.598 92.3282 224.906L93.9758 228.551C97.3111 227.043 100.247 225.003 102.771 222.434L99.9171 219.631ZM92.3374 224.902C89.4459 226.191 86.3539 226.84 83.04 226.84V230.84C86.8941 230.84 90.5434 230.082 93.9666 228.555L92.3374 224.902ZM83.04 217.912C85.1661 217.912 87.1957 217.525 89.1111 216.739L87.5929 213.038C86.1803 213.618 84.6686 213.912 83.04 213.912V217.912ZM89.1512 216.722C91.0359 215.9 92.6973 214.78 94.1182 213.359L91.2898 210.53C90.236 211.584 88.9961 212.426 87.5528 213.055L89.1512 216.722ZM94.1428 213.334C95.5039 211.924 96.5927 210.299 97.4096 208.473L93.7584 206.84C93.1246 208.256 92.2934 209.49 91.2652 210.555L94.1428 213.334ZM97.4343 208.416C98.2201 206.5 98.608 204.471 98.608 202.344H94.608C94.608 203.973 94.3132 205.485 93.7337 206.897L97.4343 208.416ZM98.608 202.344C98.608 200.182 98.2225 198.145 97.4273 196.256L93.7407 197.809C94.3108 199.163 94.608 200.667 94.608 202.344H98.608ZM97.4174 196.233C96.5995 194.357 95.5027 192.715 94.1182 191.33L91.2898 194.159C92.2947 195.164 93.1178 196.38 93.7506 197.832L97.4174 196.233ZM94.1182 191.33C92.6883 189.9 91.0132 188.795 89.1111 188.014L87.5929 191.715C89.0188 192.3 90.245 193.114 91.2898 194.159L94.1182 191.33ZM89.1512 188.031C87.2264 187.192 85.1827 186.776 83.04 186.776V190.776C84.652 190.776 86.1496 191.086 87.5528 191.698L89.1512 188.031ZM83.04 186.776C80.8973 186.776 78.8536 187.192 76.9288 188.031L78.5272 191.698C79.9304 191.086 81.428 190.776 83.04 190.776V186.776ZM76.9689 188.014C75.0608 188.797 73.3969 189.91 72.0012 191.355L74.8788 194.134C75.8725 193.105 77.0672 192.297 78.4871 191.715L76.9689 188.014ZM72.0508 191.306C70.6053 192.701 69.4925 194.365 68.7097 196.273L72.4103 197.792C72.9929 196.372 73.8 195.177 74.8292 194.183L72.0508 191.306ZM68.7344 196.216C67.885 198.114 67.472 200.166 67.472 202.344H71.472C71.472 200.683 71.7843 199.193 72.3856 197.849L68.7344 196.216ZM67.472 202.344C67.472 204.487 67.8876 206.531 68.7266 208.456L72.3934 206.857C71.7817 205.454 71.472 203.956 71.472 202.344H67.472ZM68.7167 208.433C69.4992 210.291 70.6045 211.937 72.0258 213.359L74.8542 210.53C73.8008 209.477 72.9861 208.265 72.4033 206.88L68.7167 208.433ZM72.0012 213.334C73.3879 214.77 75.0381 215.898 76.9288 216.722L78.5272 213.055C77.0899 212.429 75.8815 211.594 74.8788 210.555L72.0012 213.334ZM76.9689 216.739C78.8843 217.525 80.9139 217.912 83.04 217.912V213.912C81.4114 213.912 79.8997 213.618 78.4871 213.038L76.9689 216.739ZM58.08 155.847H56.08V157.847H58.08V155.847ZM58.08 143.111V141.111H56.08V143.111H58.08ZM95.648 143.111V145.111H97.648V143.111H95.648ZM95.648 119.175V117.175H93.648V119.175H95.648ZM108 119.175H110V117.175H108V119.175ZM108 155.847V157.847H110V155.847H108ZM60.08 155.847V143.111H56.08V155.847H60.08ZM58.08 145.111H95.648L95.648 141.111H58.08V145.111ZM97.648 143.111V119.175H93.648L93.648 143.111H97.648ZM95.648 121.175H108V117.175H95.648V121.175ZM106 119.175V155.847H110V119.175H106ZM108 153.847H58.08V157.847H108V153.847ZM58.08 70.729L57.3311 68.8745L56.08 69.3798V70.729H58.08ZM108 50.569H110V47.6044L107.251 48.7145L108 50.569ZM108 64.521L108.706 66.3923L110 65.9042V64.521H108ZM100.704 67.273L99.9982 65.4017L98.704 65.8898V67.273H100.704ZM100.704 86.921H98.704V88.3042L99.9982 88.7923L100.704 86.921ZM108 89.673H110V88.2898L108.706 87.8017L108 89.673ZM108 103.625L107.249 105.479L110 106.593V103.625H108ZM58.08 83.401H56.08V84.7486L57.329 85.2547L58.08 83.401ZM74.464 77.065L73.768 75.19L68.7461 77.054L73.7609 78.9373L74.464 77.065ZM89.12 82.569L88.4169 84.4413L91.12 85.4565V82.569H89.12ZM89.12 71.625H91.12V68.7493L88.424 69.75L89.12 71.625ZM58.8289 72.5835L108.749 52.4235L107.251 48.7145L57.3311 68.8745L58.8289 72.5835ZM106 50.569V64.521H110V50.569H106ZM107.294 62.6497L99.9982 65.4017L101.41 69.1443L108.706 66.3923L107.294 62.6497ZM98.704 67.273V86.921H102.704V67.273H98.704ZM99.9982 88.7923L107.294 91.5443L108.706 87.8017L101.41 85.0497L99.9982 88.7923ZM106 89.673V103.625H110V89.673H106ZM108.751 101.771L58.831 81.5473L57.329 85.2547L107.249 105.479L108.751 101.771ZM60.08 83.401V70.729H56.08V83.401H60.08ZM73.7609 78.9373L88.4169 84.4413L89.8231 80.6967L75.1671 75.1927L73.7609 78.9373ZM91.12 82.569V71.625H87.12V82.569H91.12ZM88.424 69.75L73.768 75.19L75.16 78.94L89.816 73.5L88.424 69.75ZM58.08 18.403L58.2607 16.4112L56.08 16.2133V18.403H58.08ZM89.824 21.283H91.824V19.4562L90.0047 19.2912L89.824 21.283ZM89.824 29.795L90.0047 31.7868L91.824 31.6218V29.795H89.824ZM58.08 32.675H56.08V34.8647L58.2607 34.6668L58.08 32.675ZM95.328 31.267L93.9138 32.6812L93.9138 32.6812L95.328 31.267ZM95.328 19.875L96.7422 21.2892L96.7422 21.2892L95.328 19.875ZM106.72 19.875L105.306 21.2892L105.306 21.2892L106.72 19.875ZM108.448 22.435L106.614 23.2325L108.448 22.435ZM108.448 28.707L106.614 27.9095L108.448 28.707ZM106.72 31.267L105.306 29.8528L105.306 29.8528L106.72 31.267ZM104.16 32.995L104.957 34.8291L104.16 32.995ZM57.8993 20.3948L89.6433 23.2748L90.0047 19.2912L58.2607 16.4112L57.8993 20.3948ZM87.824 21.283V29.795H91.824V21.283H87.824ZM89.6433 27.8032L57.8993 30.6832L58.2607 34.6668L90.0047 31.7868L89.6433 27.8032ZM60.08 32.675V18.403H56.08V32.675H60.08ZM101.024 31.635C100.179 31.635 99.4059 31.4741 98.6855 31.1609L97.0905 34.8291C98.3328 35.3692 99.6506 35.635 101.024 35.635V31.635ZM98.6855 31.1609C97.9241 30.8299 97.2825 30.3931 96.7422 29.8528L93.9138 32.6812C94.8242 33.5916 95.8892 34.3068 97.0905 34.8291L98.6855 31.1609ZM96.7422 29.8528C96.2019 29.3125 95.7651 28.6709 95.4341 27.9095L91.7659 29.5045C92.2882 30.7058 93.0034 31.7708 93.9138 32.6812L96.7422 29.8528ZM95.4341 27.9095C95.1209 27.1891 94.96 26.4162 94.96 25.571H90.96C90.96 26.9444 91.2258 28.2622 91.7659 29.5045L95.4341 27.9095ZM94.96 25.571C94.96 24.7258 95.1209 23.9529 95.4341 23.2325L91.7659 21.6375C91.2258 22.8798 90.96 24.1976 90.96 25.571H94.96ZM95.4341 23.2325C95.7651 22.4711 96.2019 21.8295 96.7422 21.2892L93.9138 18.4608C93.0034 19.3712 92.2882 20.4362 91.7659 21.6375L95.4341 23.2325ZM96.7422 21.2892C97.2825 20.7489 97.9241 20.3121 98.6855 19.9811L97.0905 16.3129C95.8892 16.8352 94.8242 17.5504 93.9138 18.4608L96.7422 21.2892ZM98.6855 19.9811C99.4059 19.6679 100.179 19.507 101.024 19.507V15.507C99.6506 15.507 98.3328 15.7728 97.0905 16.3129L98.6855 19.9811ZM101.024 19.507C101.869 19.507 102.642 19.6679 103.363 19.9811L104.957 16.3129C103.715 15.7728 102.397 15.507 101.024 15.507V19.507ZM103.363 19.9811C104.124 20.3121 104.765 20.7489 105.306 21.2892L108.134 18.4608C107.224 17.5504 106.159 16.8352 104.957 16.3129L103.363 19.9811ZM105.306 21.2892C105.846 21.8295 106.283 22.4711 106.614 23.2325L110.282 21.6375C109.76 20.4362 109.045 19.3712 108.134 18.4608L105.306 21.2892ZM106.614 23.2325C106.927 23.9529 107.088 24.7258 107.088 25.571H111.088C111.088 24.1976 110.822 22.8798 110.282 21.6375L106.614 23.2325ZM107.088 25.571C107.088 26.4162 106.927 27.1891 106.614 27.9095L110.282 29.5045C110.822 28.2622 111.088 26.9444 111.088 25.571H107.088ZM106.614 27.9095C106.283 28.6709 105.846 29.3125 105.306 29.8528L108.134 32.6812C109.045 31.7708 109.76 30.7058 110.282 29.5045L106.614 27.9095ZM105.306 29.8528C104.765 30.3931 104.124 30.8299 103.363 31.1609L104.957 34.8291C106.159 34.3068 107.224 33.5916 108.134 32.6812L105.306 29.8528ZM103.363 31.1609C102.642 31.4741 101.869 31.635 101.024 31.635V35.635C102.397 35.635 103.715 35.3692 104.957 34.8291L103.363 31.1609Z" fill="#FF006F"/>
</svg>
