<svg width="29" height="40" viewBox="0 0 29 40" fill="none" xmlns="http://www.w3.org/2000/svg">
<path d="M14.5 26C17.8152 26 20.9946 24.7357 23.3388 22.4853C25.683 20.2348 27 17.1826 27 14C27 10.8174 25.683 7.76516 23.3388 5.51472C20.9946 3.26428 17.8152 2 14.5 2C11.1848 2 8.00537 3.26428 5.66117 5.51472C3.31696 7.76516 2 10.8174 2 14C2 17.1826 3.31696 20.2348 5.66117 22.4853C8.00537 24.7357 11.1848 26 14.5 26ZM14.5 26V34M14.5 34V38M14.5 34H10.3333M14.5 34H18.6667" stroke="#FF59A1" stroke-width="4" stroke-linecap="round" stroke-linejoin="round"/>
</svg>
